<svg width="1440" height="840" viewBox="0 0 1440 840" fill="none" xmlns="http://www.w3.org/2000/svg" role="img" aria-labelledby="title desc">
  <title id="title">The Floor showcase preview</title>
  <desc id="desc">Dark trading-room interface with analyst debate, source chips, data room, and conviction tracker.</desc>
  <rect width="1440" height="840" fill="#050607"/>
  <path d="M0 84H1440M0 168H1440M0 252H1440M0 336H1440M0 420H1440M0 504H1440M0 588H1440M0 672H1440M0 756H1440M120 0V840M240 0V840M360 0V840M480 0V840M600 0V840M720 0V840M840 0V840M960 0V840M1080 0V840M1200 0V840M1320 0V840" stroke="#D9E1EA" stroke-opacity="0.055"/>
  <rect x="38" y="36" width="1364" height="768" rx="18" fill="#0A0D0F" fill-opacity="0.94" stroke="#D9E1EA" stroke-opacity="0.16"/>
  <rect x="38" y="36" width="302" height="768" rx="18" fill="#0D1114" stroke="#D9E1EA" stroke-opacity="0.12"/>
  <rect x="1100" y="36" width="302" height="768" rx="18" fill="#090B0D" stroke="#D9E1EA" stroke-opacity="0.12"/>

  <text x="74" y="90" fill="#56CCF2" font-family="SFMono-Regular, Menlo, monospace" font-size="18" font-weight="700">THE FLOOR</text>
  <text x="74" y="138" fill="#EDF2F7" font-family="Inter, Arial, sans-serif" font-size="40" font-weight="700">Five analysts.</text>
  <text x="74" y="184" fill="#EDF2F7" font-family="Inter, Arial, sans-serif" font-size="40" font-weight="700">One stock.</text>
  <text x="74" y="230" fill="#EDF2F7" font-family="Inter, Arial, sans-serif" font-size="40" font-weight="700">No mercy.</text>
  <rect x="74" y="282" width="106" height="40" rx="8" fill="#56CCF2" fill-opacity="0.14" stroke="#56CCF2" stroke-opacity="0.48"/>
  <text x="101" y="307" fill="#56CCF2" font-family="SFMono-Regular, Menlo, monospace" font-size="15" font-weight="700">Showcase</text>
  <rect x="190" y="282" width="86" height="40" rx="8" fill="#FFFFFF" fill-opacity="0.03" stroke="#D9E1EA" stroke-opacity="0.18"/>
  <text x="217" y="307" fill="#93A3B5" font-family="SFMono-Regular, Menlo, monospace" font-size="15" font-weight="700">Live</text>
  <rect x="74" y="350" width="226" height="52" rx="8" fill="#000000" fill-opacity="0.32" stroke="#D9E1EA" stroke-opacity="0.16"/>
  <text x="94" y="382" fill="#EDF2F7" font-family="SFMono-Regular, Menlo, monospace" font-size="20">NVDA</text>
  <rect x="74" y="428" width="226" height="90" rx="8" fill="#000000" fill-opacity="0.32" stroke="#D9E1EA" stroke-opacity="0.16"/>
  <text x="94" y="460" fill="#93A3B5" font-family="SFMono-Regular, Menlo, monospace" font-size="15">AI capex priced in?</text>
  <rect x="74" y="546" width="226" height="48" rx="8" fill="#50E3A4" fill-opacity="0.14" stroke="#50E3A4" stroke-opacity="0.5"/>
  <text x="124" y="576" fill="#50E3A4" font-family="Inter, Arial, sans-serif" font-size="17" font-weight="700">Play showcase</text>

  <rect x="340" y="36" width="760" height="78" fill="#0E1215" stroke="#D9E1EA" stroke-opacity="0.14"/>
  <text x="378" y="72" fill="#56CCF2" font-family="SFMono-Regular, Menlo, monospace" font-size="16" font-weight="700">LIVE ROOM</text>
  <text x="378" y="101" fill="#EDF2F7" font-family="Inter, Arial, sans-serif" font-size="24" font-weight="700">NVDA saved replay</text>
  <rect x="930" y="62" width="130" height="32" rx="16" fill="#50E3A4" fill-opacity="0.1" stroke="#50E3A4" stroke-opacity="0.42"/>
  <text x="960" y="83" fill="#50E3A4" font-family="SFMono-Regular, Menlo, monospace" font-size="13">Debate live</text>
  <rect x="362" y="136" width="88" height="34" rx="8" fill="#56CCF2" fill-opacity="0.12" stroke="#56CCF2" stroke-opacity="0.45"/>
  <text x="383" y="158" fill="#56CCF2" font-family="SFMono-Regular, Menlo, monospace" font-size="14" font-weight="700">Debate</text>
  <rect x="460" y="136" width="76" height="34" rx="8" fill="#FFFFFF" fill-opacity="0.03" stroke="#D9E1EA" stroke-opacity="0.18"/>
  <text x="483" y="158" fill="#93A3B5" font-family="SFMono-Regular, Menlo, monospace" font-size="14" font-weight="700">Data</text>

  <rect x="380" y="204" width="650" height="92" rx="8" fill="#000000" fill-opacity="0.28" stroke="#50E3A4" stroke-opacity="0.42"/>
  <text x="402" y="232" fill="#50E3A4" font-family="SFMono-Regular, Menlo, monospace" font-size="13" font-weight="800">BULL</text>
  <text x="456" y="232" fill="#EDF2F7" font-family="Inter, Arial, sans-serif" font-size="17" font-weight="700">Marcus</text>
  <text x="524" y="232" fill="#93A3B5" font-family="SFMono-Regular, Menlo, monospace" font-size="13">(The Bull)</text>
  <text x="402" y="264" fill="#E4EBF3" font-family="Inter, Arial, sans-serif" font-size="18">Operating leverage keeps paying while evidence accumulates.</text>
  <rect x="402" y="274" width="176" height="22" rx="11" fill="#56CCF2" fill-opacity="0.08" stroke="#56CCF2" stroke-opacity="0.28"/>
  <text x="418" y="290" fill="#93A3B5" font-family="SFMono-Regular, Menlo, monospace" font-size="11">N03 · SEC facts</text>

  <rect x="380" y="318" width="650" height="98" rx="8" fill="#000000" fill-opacity="0.28" stroke="#FF5A64" stroke-opacity="0.42"/>
  <text x="402" y="346" fill="#FF5A64" font-family="SFMono-Regular, Menlo, monospace" font-size="13" font-weight="800">BEAR</text>
  <text x="456" y="346" fill="#EDF2F7" font-family="Inter, Arial, sans-serif" font-size="17" font-weight="700">Yara</text>
  <text x="508" y="346" fill="#93A3B5" font-family="SFMono-Regular, Menlo, monospace" font-size="13">(The Bear)</text>
  <text x="402" y="378" fill="#E4EBF3" font-family="Inter, Arial, sans-serif" font-size="18">Capex is not demand. Show customer ROI, retention, and cash conversion.</text>
  <rect x="402" y="388" width="205" height="22" rx="11" fill="#56CCF2" fill-opacity="0.08" stroke="#56CCF2" stroke-opacity="0.28"/>
  <text x="418" y="404" fill="#93A3B5" font-family="SFMono-Regular, Menlo, monospace" font-size="11">N04 · assumption audit</text>

  <rect x="380" y="438" width="650" height="98" rx="8" fill="#000000" fill-opacity="0.28" stroke="#56CCF2" stroke-opacity="0.42"/>
  <text x="402" y="466" fill="#56CCF2" font-family="SFMono-Regular, Menlo, monospace" font-size="13" font-weight="800">QUANT</text>
  <text x="466" y="466" fill="#EDF2F7" font-family="Inter, Arial, sans-serif" font-size="17" font-weight="700">Kenji</text>
  <text x="526" y="466" fill="#93A3B5" font-family="SFMono-Regular, Menlo, monospace" font-size="13">(The Quant)</text>
  <text x="402" y="498" fill="#E4EBF3" font-family="Inter, Arial, sans-serif" font-size="18">The distribution is wide. This is not a clean one-variable argument.</text>
  <rect x="402" y="508" width="194" height="22" rx="11" fill="#56CCF2" fill-opacity="0.08" stroke="#56CCF2" stroke-opacity="0.28"/>
  <text x="418" y="524" fill="#93A3B5" font-family="SFMono-Regular, Menlo, monospace" font-size="11">N01 · market snapshot</text>

  <rect x="380" y="558" width="650" height="112" rx="8" fill="#D9E1EA" fill-opacity="0.08" stroke="#D9E1EA" stroke-opacity="0.22"/>
  <text x="402" y="586" fill="#D9E1EA" font-family="SFMono-Regular, Menlo, monospace" font-size="13" font-weight="800">MOD</text>
  <text x="456" y="586" fill="#EDF2F7" font-family="Inter, Arial, sans-serif" font-size="17" font-weight="700">Moderator</text>
  <text x="402" y="620" fill="#E4EBF3" font-family="Inter, Arial, sans-serif" font-size="18">Live disagreement: evidence quality, not a buy/sell call.</text>
  <text x="402" y="650" fill="#93A3B5" font-family="Inter, Arial, sans-serif" font-size="16">No recommendation. Saved showcase replay, not financial advice.</text>

  <text x="1136" y="90" fill="#56CCF2" font-family="SFMono-Regular, Menlo, monospace" font-size="16" font-weight="700">CONVICTION</text>
  <text x="1136" y="124" fill="#EDF2F7" font-family="Inter, Arial, sans-serif" font-size="28" font-weight="700">Tracker</text>
  <text x="1136" y="190" fill="#EDF2F7" font-family="SFMono-Regular, Menlo, monospace" font-size="13">Marcus</text>
  <rect x="1136" y="206" width="214" height="14" rx="7" fill="#17211C" stroke="#D9E1EA" stroke-opacity="0.14"/>
  <circle cx="1238" cy="213" r="8" fill="#50E3A4"/>
  <text x="1320" y="190" fill="#50E3A4" font-family="SFMono-Regular, Menlo, monospace" font-size="13">+42</text>
  <text x="1136" y="258" fill="#EDF2F7" font-family="SFMono-Regular, Menlo, monospace" font-size="13">Yara</text>
  <rect x="1136" y="274" width="214" height="14" rx="7" fill="#211719" stroke="#D9E1EA" stroke-opacity="0.14"/>
  <circle cx="1193" cy="281" r="8" fill="#FF5A64"/>
  <text x="1320" y="258" fill="#FF5A64" font-family="SFMono-Regular, Menlo, monospace" font-size="13">-22</text>
  <text x="1136" y="326" fill="#EDF2F7" font-family="SFMono-Regular, Menlo, monospace" font-size="13">Kenji</text>
  <rect x="1136" y="342" width="214" height="14" rx="7" fill="#121A20" stroke="#D9E1EA" stroke-opacity="0.14"/>
  <circle cx="1254" cy="349" r="8" fill="#56CCF2"/>
  <text x="1320" y="326" fill="#56CCF2" font-family="SFMono-Regular, Menlo, monospace" font-size="13">+08</text>

  <rect x="1136" y="420" width="214" height="166" rx="8" fill="#000000" fill-opacity="0.24" stroke="#D9E1EA" stroke-opacity="0.14"/>
  <text x="1158" y="456" fill="#56CCF2" font-family="SFMono-Regular, Menlo, monospace" font-size="13" font-weight="700">EVIDENCE</text>
  <text x="1158" y="492" fill="#EDF2F7" font-family="Inter, Arial, sans-serif" font-size="16" font-weight="700">N03 · SEC EDGAR</text>
  <text x="1158" y="522" fill="#93A3B5" font-family="Inter, Arial, sans-serif" font-size="14">Free cash flow is real,</text>
  <text x="1158" y="546" fill="#93A3B5" font-family="Inter, Arial, sans-serif" font-size="14">but not demand proof.</text>
  <rect x="1136" y="622" width="214" height="74" rx="8" fill="#F2C94C" fill-opacity="0.08" stroke="#F2C94C" stroke-opacity="0.28"/>
  <text x="1158" y="656" fill="#F2C94C" font-family="SFMono-Regular, Menlo, monospace" font-size="13" font-weight="700">SHOWCASE</text>
  <text x="1158" y="680" fill="#93A3B5" font-family="Inter, Arial, sans-serif" font-size="14">No API key. No token spend.</text>
</svg>
